<?xml version="1.0" encoding="UTF-8"?>
<svg xmlns="http://www.w3.org/2000/svg" xmlns:xlink="http://www.w3.org/1999/xlink"
     width="240.9" height="20" viewBox="0 -20 240.9 20">
<defs>
<linearGradient x1="0" y1="0" x2="0" y2="100%" gradientUnits="userSpaceOnUse" id="smooth">
<stop offset="0" stop-color="#bbb" stop-opacity="0.1" />
<stop offset="1" stop-color="#fff" stop-opacity="0.1" />
</linearGradient>
<clipPath id="d0">
<rect x="0" y="-20" width="240.9" height="20" rx="2" fill="#fff" />
</clipPath>
<clipPath id="d1">
<rect x="0" y="-20" width="240.9" height="20" rx="2" fill="#fff" />
</clipPath>
<linearGradient x1="0" y1="0" x2="0" y2="100%" gradientUnits="userSpaceOnUse" id="smooth">
<stop offset="0" stop-color="#bbb" stop-opacity="0.1" />
<stop offset="1" stop-color="#fff" stop-opacity="0.1" />
</linearGradient>
</defs>
<use xlink:href="#smooth" />
<use xlink:href="#d0" />
<g clip-path="url(#d1)">
<rect x="0" y="-20" width="209.9" height="20" fill="#252525" />
<rect x="209.9" y="-20" width="31.0" height="20" fill="#75C54A" />
<rect x="20" y="-20" width="80.9" height="20" fill="#4E4E4E" />
<rect x="0" y="-20" width="240.9" height="20" fill="url(#smooth)" />
</g>
<g fill="#fff" text-anchor="middle" font-size="110">
<g transform="translate(3, -17.0) scale(0.013671875)">
<path d="M280,288.83 h291.7 c24.64,0,45.16,20.39,45.16,44.84 s-20.52,44.84,-45.16,44.84 H280 Z m0,354.63 H637.44 c24.64,0,45.2,20.37,45.2,44.85 s-20.56,44.81,-45.2,44.81 H280 Z M164,916.57 V106.42 H451.53 c89.37,0,164.33,19.35,227,59.1 c61.62,38.74,108.85,89.69,139.67,151.83 S865.43,444.73,865.43,512 c0,68.28,-15.4,133.49,-47.24,194.65 c-30.82,62.14,-78.05,112.08,-139.67,151.83 c-61.64,38.71,-137.62,59.1,-227,59.1 H217.39 C202,916.57,165,916.57,164,916.57 Z M280,466.15 H482.35 c24.67,0,45.19,20.36,45.19,44.84 S507,555.83,482.35,555.83 H280 Z" fill="#fff" fill-rule="evenodd" />
</g>
<text x="604.5" y="-50" font-size="110" fill="#010101" fill-opacity=".3" font-family="DejaVu Sans,Verdana,Geneva,sans-serif" transform="scale(0.1)" textLength="709.0" lengthAdjust="spacing" dy="0em">active issues</text>
<text x="604.5" y="-60" font-size="110" font-family="DejaVu Sans,Verdana,Geneva,sans-serif" transform="scale(0.1)" textLength="709.0" lengthAdjust="spacing" dy="0em">active issues</text>
<text x="2254.0" y="-50" font-size="110" fill="#010101" fill-opacity=".3" font-family="DejaVu Sans,Verdana,Geneva,sans-serif" transform="scale(0.1)" textLength="210.0" lengthAdjust="spacing" dy="0em">163</text>
<text x="2254.0" y="-60" font-size="110" font-family="DejaVu Sans,Verdana,Geneva,sans-serif" transform="scale(0.1)" textLength="210.0" lengthAdjust="spacing" dy="0em">163</text>
<g transform="translate(99.9, -4)">
<path d="M7.0,-12.539301172783468 L7.96969696969697,-11.016305790782638 L8.93939393939394,-11.49746575785312 L9.90909090909091,-12.416075510108584 L10.878787878787879,-13.002729304473121 L11.848484848484848,-12.980477303244356 L12.818181818181818,-12.353288671833525 L13.787878787878789,-11.264267544629263 L14.757575757575758,-9.905036452485348 L15.727272727272727,-8.461792652703252 L16.696969696969695,-7.086884705800742 L17.666666666666668,-5.887463096880396 L18.636363636363637,-4.924929202421424 L19.606060606060606,-4.220628319970217 L20.575757575757578,-3.7645802949762697 L21.545454545454547,-3.5250807768406958 L22.515151515151516,-3.457793461259911 L23.484848484848484,-3.5135368439557624 L24.454545454545453,-3.6443888142947003 L25.424242424242426,-3.8080232644899468 L26.393939393939394,-3.9703835847023186 L27.363636363636363,-4.106912337477041 L28.333333333333336,-4.20261416639778 L29.303030303030305,-4.251246003171758 L30.272727272727273,-4.253917629948035 L31.242424242424242,-4.217356645270229 L32.21212121212121,-4.152052600648659 L33.18181818181819,-4.070451344278695 L34.151515151515156,-3.985326644278132 L35.121212121212125,-3.908414877267944 L36.09090909090909,-3.849361879424606 L37.06060606060606,-3.815000010471522 L38.03030303030303,-3.808948469008726 L39.0,-3.8315109639220566 L39.96969696969697,-3.8798315450857785 L40.93939393939394,-3.948261128392005 L41.90909090909091,-4.0288833726482665 L42.87878787878788,-4.112148174221517 L43.84848484848485,-4.1875634482006205 L44.81818181818182,-4.244400311734125 L45.78787878787879,-4.272372495465106 L46.75757575757576,-4.2622574638621415 L47.72727272727273,-4.206433417738481 L48.696969696969695,-4.099313307282529 L49.66666666666667,-3.9376632164422176 L50.63636363636364,-3.720798526283545 L51.60606060606061,-3.4506563896289606 L52.57575757575758,-3.1317476597373854 L53.54545454545455,-2.7709954002785935 L54.515151515151516,-2.3774701814225807 L55.484848484848484,-1.9620354765420984 L56.45454545454545,-1.5369182096212342 L57.42424242424242,-1.1152219006054622 L58.3939393939394,-0.710400825146337 L59.36363636363637,-0.33571523971585293 L60.333333333333336,-0.0036878540294935647 L61.303030303030305,0.022868086819045175 L62.27272727272727,0.040755950061885926 L63.24242424242424,0.052741456204543624 L64.21212121212122,0.058416610231425636 L65.18181818181819,0.05759954451309568 L66.15151515151516,0.05034430593494932 L67.12121212121212,0.03694030476905397 L68.0909090909091,0.01790081916442432 L69.06060606060606,-0.07271233530613586 L70.03030303030303,-0.4086802774718876 L71.0,-0.780970679775038 L71.96969696969697,-1.1765344448841972 L72.93939393939394,-1.582053481283907 L73.9090909090909,-1.9846226481178917 L74.87878787878788,-2.37241597353713 L75.84848484848484,-2.73529021878403 L76.81818181818181,-3.065274978266018 L77.7878787878788,-3.356902061324547 L78.75757575757576,-3.6073315101928927 L79.72727272727273,-3.8162368384312515 L80.6969696969697,-3.9854328848321074 L81.66666666666667,-4.118244081604956 L82.63636363636364,-4.218639488403028 L83.60606060606061,-4.29019161885563 L84.57575757575758,-4.334948810365347 L85.54545454545455,-4.3523485441406535 L86.51515151515152,-4.338332513255665 L87.48484848484848,-4.284861927095193 L88.45454545454545,-4.180034769774295 L89.42424242424242,-4.009020411005224 L90.39393939393939,-3.755992833648037 L91.36363636363636,-3.407157601377236 L92.33333333333334,-2.9548621590780044 L93.30303030303031,-2.402534315599098 L94.27272727272728,-1.7699135835840991 L95.24242424242425,-1.0975579095839691 L96.21212121212122,-0.44902766726042387 L97.18181818181819,0.007641310946048918 L98.15151515151516,0.03592374691982769 L99.12121212121212,0.0408444315467662 L100.0909090909091,0.020694988801153613 L101.06060606060606,-0.18351131131399256 L102.03030303030303,-0.4499976959708363 L103.0,0.01816211992568384" fill="transparent" stroke="#75C54A" stroke-width="1.5" stroke-linejoin="round" />
</g>
</g>
</svg>
